PathFileType	4	(X/Y/Z)	C:/Users/beibeiliu/ov580/test_trc/User3\sequence.7_training_dense_left.trc
DataRate	CameraRate	NumFrames	NumMarkers	Units	OrigDataRate	OrigDataStartFrame	OrigNumFrames
120	120	7	19	mm	120	119	236
Frame#	Time	ThumbCMC			ThumbMCP			ThumbIP			ThumbTip			IndexMCP			IndexPIP			IndexTip			MiddleMCP			MiddlePIP			MiddleTip			RingMCP			RingPIP			RingTip			PinkyMCP			PinkyPIP			PinkyTip			BackHand1			BackHand2			BackHand3	
		X0	Y0	Z0	X1	Y1	Z1	X2	Y2	Z2	X3	Y3	Z3	X4	Y4	Z4	X5	Y5	Z5	X6	Y6	Z6	X7	Y7	Z7	X8	Y8	Z8	X9	Y9	Z9	X10	Y10	Z10	X11	Y11	Z11	X12	Y12	Z12	X13	Y13	Z13	X14	Y14	Z14	X15	Y15	Z15	X16	Y16	Z16	X17	Y17	Z17	X18	Y18	Z18	
118	0.983333	-110.688	-10.2469	51.2064	-86.9499	-25.4708	27.5937	-86.8226	-40.7986	3.54459	-98.4806	-57.7817	-14.1189	-108.005	1.34858	-26.01	-99.2103	-7.26626	-52.7162	-93.8323	-20.8948	-72.6468	-120.171	-27.7578	-26.0194	-108.051	-55.8498	-15.4804	-120.583	-39.3715	19.2406	-137.309	-44.0849	-18.175	-129.206	-63.1087	0.706963	-133.945	-39.7973	29.3101	-155.016	-46.9328	-10.2251	-142.32	-63.3199	8.23231	-143.923	-40.6653	31.4914	-164.225	1.01032	14.3709	-172.363	2.63957	46.6311	-135.202	12.4465	39.8079	
119	0.991667	-111.046	-11.9512	51.9706	-84.7531	-28.2847	31.6348	-81.5661	-46.0696	6.20537	-97.9989	-61.3854	-9.69992	-101.301	-2.47462	-20.9091	-90.0921	-11.568	-46.2948	-80.1841	-29.0623	-67.6261	-116.417	-33.6855	-25.9255	-105.737	-60.956	-8.26438	-119.601	-39.6785	23.5166	-132.084	-45.6701	-17.5087	-122.522	-64.671	4.91062	-132.46	-44.4935	29.9118	-148.987	-50.3783	-10.4227	-139.204	-64.8036	11.1358	-142.785	-40.4816	30.4348	-160.79	-1.19379	8.74053	-172.888	0.367093	40.6613	-138.597	11.1586	37.6614	
120	1	-110.422	-11.8515	56.5417	-89.1209	-30.2468	38.7265	-82.801	-49.8675	13.5483	-92.8663	-64.223	-1.47939	-96.4559	-7.58915	-22.9159	-83.3443	-17.8068	-41.7237	-68.2765	-32.712	-59.6006	-113.191	-35.534	-22.1163	-101.455	-63.2449	-4.78713	-117.86	-45.5558	23.3421	-127.988	-44.5477	-15.2039	-120.61	-67.7441	5.10435	-133.112	-44.4136	31.4656	-142.141	-54.1199	-9.58692	-133.431	-65.1214	14.0639	-142.945	-47.497	31.895	-160.696	-4.71165	10.0264	-173.195	-2.22554	38.2832	-133.135	9.6466	33.743	
121	1.00833	-110.848	-12.7849	57.0038	-88.8586	-32.4929	43.1736	-79.8839	-51.9562	18.437	-93.4997	-69.4068	-2.41415	-93.6744	-11.7861	-20.4492	-77.341	-21.1283	-38.1399	-61.4754	-39.2054	-56.738	-106.101	-42.6912	-20.4141	-95.9257	-64.6398	-3.09762	-118.783	-48.8141	25.3847	-127.553	-51.7552	-13.6461	-122.862	-71.1801	9.24012	-133.987	-47.963	31.5109	-143.526	-57.1688	-10.5155	-135.165	-71.0079	13.5534	-146.072	-49.547	31.5649	-155.694	-8.34633	5.58715	-174.486	-3.89003	36.1183	-136.777	8.76847	33.6493	
122	1.01667	-118.703	-13.6316	57.9159	-91.0298	-31.5753	42.6456	-78.4992	-53.7715	19.5892	-92.4967	-69.2195	0.97104	-90.155	-12.444	-18.8745	-74.0726	-21.543	-32.8295	-56.371	-34.8338	-47.1799	-105.466	-42.0063	-19.0803	-96.8664	-66.067	0.650358	-117.698	-44.7706	28.4143	-124.831	-55.0325	-12.4483	-122.369	-72.3114	12.3681	-135.116	-49.897	31.9939	-140.047	-62.4777	-9.337	-134.438	-71.2935	13.9802	-143.818	-47.5	30.5133	-157.743	-10.8073	2.44888	-176.098	-2.63953	32.5954	-137.028	7.68031	34.1084	
123	1.025	-116.642	-11.4823	57.2497	-91.5378	-30.9609	41.2966	-83.2637	-50.8612	19.6347	-91.2249	-69.1319	3.45786	-90.304	-10.4311	-14.0879	-72.4507	-22.4539	-34.4223	-53.1869	-37.6995	-47.3984	-105.153	-40.1647	-18.3199	-101.063	-66.5528	-0.574335	-119.01	-45.6513	27.4425	-125.116	-49.2063	-12.6196	-122.956	-71.0824	11.4175	-135.27	-46.5649	31.805	-143.339	-56.8032	-10.4999	-134.702	-68.8777	14.0039	-149.19	-50.3247	31.4143	-161.864	-9.50668	5.58409	-174.907	-2.43271	30.4382	-144.135	7.61276	33.1252	
124	1.03333	-121.5	-11.1846	54.9562	-97.6951	-29.3418	41.2629	-82.7492	-49.5236	19.0458	-93.3803	-66.0944	2.6092	-95.5645	-10.4419	-16.4372	-77.7217	-20.5214	-33.4287	-58.1821	-34.2886	-48.0249	-107.004	-36.5013	-19.5635	-102.866	-65.1862	-2.10675	-122.117	-45.6265	25.1484	-129.018	-49.7032	-15.0481	-122.352	-70.1346	7.30415	-135.431	-44.3831	30.1396	-147.337	-57.7102	-12.2709	-137.807	-68.0229	12.9494	-151.202	-46.3866	29.5364	-160.002	-7.06793	2.39975	-181.593	-1.96979	30.1586	-145.739	7.1585	33.0895	
